<!DOCTYPE svg PUBLIC "-//W3C//DTD SVG 1.1//EN" "http://www.w3.org/Graphics/SVG/1.1/DTD/svg11.dtd">
<!-- Uploaded to: SVG Repo, www.svgrepo.com, Transformed by: SVG Repo Mixer Tools -->
<svg width="98px" height="98px" viewBox="-2.16 -2.16 40.32 40.32" xmlns="http://www.w3.org/2000/svg" xmlns:xlink="http://www.w3.org/1999/xlink" aria-hidden="true" role="img" class="iconify iconify--twemoji" preserveAspectRatio="xMidYMid meet" fill="#000000" stroke="#000000" stroke-width="1.0799999999999998">
<g id="SVGRepo_bgCarrier" stroke-width="0"/>
<g id="SVGRepo_tracerCarrier" stroke-linecap="round" stroke-linejoin="round"/>
<g id="SVGRepo_iconCarrier">
<path fill="#ff2448" d="M33.207 19.773l-8.868-8.855L11.105 24.54l8.684 8.685l.001-.001A9.472 9.472 0 0 0 26.5 36c5.246 0 9.5-4.254 9.5-9.5a9.47 9.47 0 0 0-2.793-6.727z"/>
<path fill="#FDCB58" d="M15.921 2.513A9.453 9.453 0 0 0 9.5 0A9.5 9.5 0 0 0 0 9.5c0 2.479.958 4.73 2.514 6.421l-.014.014l8.605 8.605l13.234-13.622l-8.418-8.405z"/>
</g>
</svg>